solid OpenSCAD_Model
  facet normal 0.381424 0.0810741 0.920838
    outer loop
      vertex 0.55557 0 0.83147
      vertex 0.507539 0.225971 0.83147
      vertex 0.19509 0 0.980785
    endloop
  endfacet
  facet normal 0.381424 0.0810741 0.920838
    outer loop
      vertex 0.507539 0.225971 0.83147
      vertex 0.178224 0.0793504 0.980785
      vertex 0.19509 0 0.980785
    endloop
  endfacet
  facet normal 0.315472 0.229204 0.920838
    outer loop
      vertex 0.507539 0.225971 0.83147
      vertex 0.371749 0.412869 0.83147
      vertex 0.178224 0.0793504 0.980785
    endloop
  endfacet
  facet normal 0.315472 0.229204 0.920838
    outer loop
      vertex 0.371749 0.412869 0.83147
      vertex 0.130541 0.14498 0.980785
      vertex 0.178224 0.0793504 0.980785
    endloop
  endfacet
  facet normal 0.194972 0.337702 0.920838
    outer loop
      vertex 0.371749 0.412869 0.83147
      vertex 0.171681 0.528379 0.83147
      vertex 0.130541 0.14498 0.980785
    endloop
  endfacet
  facet normal 0.194972 0.337702 0.920838
    outer loop
      vertex 0.171681 0.528379 0.83147
      vertex 0.0602862 0.185542 0.980785
      vertex 0.130541 0.14498 0.980785
    endloop
  endfacet
  facet normal 0.0407603 0.387809 0.920838
    outer loop
      vertex 0.171681 0.528379 0.83147
      vertex -0.0580729 0.552527 0.83147
      vertex 0.0602862 0.185542 0.980785
    endloop
  endfacet
  facet normal 0.0407603 0.387809 0.920838
    outer loop
      vertex -0.0580729 0.552527 0.83147
      vertex -0.0203925 0.194022 0.980785
      vertex 0.0602862 0.185542 0.980785
    endloop
  endfacet
  facet normal -0.1205 0.37086 0.920838
    outer loop
      vertex -0.0580729 0.552527 0.83147
      vertex -0.277785 0.481138 0.83147
      vertex -0.0203925 0.194022 0.980785
    endloop
  endfacet
  facet normal -0.1205 0.37086 0.920838
    outer loop
      vertex -0.277785 0.481138 0.83147
      vertex -0.0975452 0.168953 0.980785
      vertex -0.0203925 0.194022 0.980785
    endloop
  endfacet
  facet normal -0.260924 0.289786 0.920838
    outer loop
      vertex -0.277785 0.481138 0.83147
      vertex -0.449466 0.326556 0.83147
      vertex -0.0975452 0.168953 0.980785
    endloop
  endfacet
  facet normal -0.260924 0.289786 0.920838
    outer loop
      vertex -0.449466 0.326556 0.83147
      vertex -0.157831 0.114671 0.980785
      vertex -0.0975452 0.168953 0.980785
    endloop
  endfacet
  facet normal -0.356232 0.158605 0.920838
    outer loop
      vertex -0.449466 0.326556 0.83147
      vertex -0.54343 0.11551 0.83147
      vertex -0.157831 0.114671 0.980785
    endloop
  endfacet
  facet normal -0.356232 0.158605 0.920838
    outer loop
      vertex -0.54343 0.11551 0.83147
      vertex -0.190827 0.0405616 0.980785
      vertex -0.157831 0.114671 0.980785
    endloop
  endfacet
  facet normal -0.389945 0 0.920838
    outer loop
      vertex -0.54343 0.11551 0.83147
      vertex -0.54343 -0.11551 0.83147
      vertex -0.190827 0.0405616 0.980785
    endloop
  endfacet
  facet normal -0.389945 0 0.920838
    outer loop
      vertex -0.54343 -0.11551 0.83147
      vertex -0.190827 -0.0405616 0.980785
      vertex -0.190827 0.0405616 0.980785
    endloop
  endfacet
  facet normal -0.356232 -0.158605 0.920838
    outer loop
      vertex -0.54343 -0.11551 0.83147
      vertex -0.449466 -0.326556 0.83147
      vertex -0.190827 -0.0405616 0.980785
    endloop
  endfacet
  facet normal -0.356232 -0.158605 0.920838
    outer loop
      vertex -0.449466 -0.326556 0.83147
      vertex -0.157831 -0.114671 0.980785
      vertex -0.190827 -0.0405616 0.980785
    endloop
  endfacet
  facet normal -0.260924 -0.289786 0.920838
    outer loop
      vertex -0.449466 -0.326556 0.83147
      vertex -0.277785 -0.481138 0.83147
      vertex -0.157831 -0.114671 0.980785
    endloop
  endfacet
  facet normal -0.260924 -0.289786 0.920838
    outer loop
      vertex -0.277785 -0.481138 0.83147
      vertex -0.0975452 -0.168953 0.980785
      vertex -0.157831 -0.114671 0.980785
    endloop
  endfacet
  facet normal -0.1205 -0.37086 0.920838
    outer loop
      vertex -0.277785 -0.481138 0.83147
      vertex -0.0580729 -0.552527 0.83147
      vertex -0.0975452 -0.168953 0.980785
    endloop
  endfacet
  facet normal -0.1205 -0.37086 0.920838
    outer loop
      vertex -0.0580729 -0.552527 0.83147
      vertex -0.0203925 -0.194022 0.980785
      vertex -0.0975452 -0.168953 0.980785
    endloop
  endfacet
  facet normal 0.0407603 -0.387809 0.920838
    outer loop
      vertex -0.0580729 -0.552527 0.83147
      vertex 0.171681 -0.528379 0.83147
      vertex -0.0203925 -0.194022 0.980785
    endloop
  endfacet
  facet normal 0.0407603 -0.387809 0.920838
    outer loop
      vertex 0.171681 -0.528379 0.83147
      vertex 0.0602862 -0.185542 0.980785
      vertex -0.0203925 -0.194022 0.980785
    endloop
  endfacet
  facet normal 0.194972 -0.337702 0.920838
    outer loop
      vertex 0.171681 -0.528379 0.83147
      vertex 0.371749 -0.412869 0.83147
      vertex 0.0602862 -0.185542 0.980785
    endloop
  endfacet
  facet normal 0.194972 -0.337702 0.920838
    outer loop
      vertex 0.371749 -0.412869 0.83147
      vertex 0.130541 -0.14498 0.980785
      vertex 0.0602862 -0.185542 0.980785
    endloop
  endfacet
  facet normal 0.315472 -0.229204 0.920838
    outer loop
      vertex 0.371749 -0.412869 0.83147
      vertex 0.507539 -0.225971 0.83147
      vertex 0.130541 -0.14498 0.980785
    endloop
  endfacet
  facet normal 0.315472 -0.229204 0.920838
    outer loop
      vertex 0.507539 -0.225971 0.83147
      vertex 0.178224 -0.0793504 0.980785
      vertex 0.130541 -0.14498 0.980785
    endloop
  endfacet
  facet normal 0.381424 -0.0810741 0.920838
    outer loop
      vertex 0.507539 -0.225971 0.83147
      vertex 0.55557 0 0.83147
      vertex 0.178224 -0.0793504 0.980785
    endloop
  endfacet
  facet normal 0.381424 -0.0810741 0.920838
    outer loop
      vertex 0.55557 0 0.83147
      vertex 0.19509 0 0.980785
      vertex 0.178224 -0.0793504 0.980785
    endloop
  endfacet
  facet normal 0.699253 0.148631 0.699253
    outer loop
      vertex 0.83147 0 0.55557
      vertex 0.759585 0.338189 0.55557
      vertex 0.55557 0 0.83147
    endloop
  endfacet
  facet normal 0.699253 0.148631 0.699253
    outer loop
      vertex 0.759585 0.338189 0.55557
      vertex 0.507539 0.225971 0.83147
      vertex 0.55557 0 0.83147
    endloop
  endfacet
  facet normal 0.578346 0.420193 0.699253
    outer loop
      vertex 0.759585 0.338189 0.55557
      vertex 0.556362 0.617902 0.55557
      vertex 0.507539 0.225971 0.83147
    endloop
  endfacet
  facet normal 0.578346 0.420193 0.699253
    outer loop
      vertex 0.556362 0.617902 0.55557
      vertex 0.371749 0.412869 0.83147
      vertex 0.507539 0.225971 0.83147
    endloop
  endfacet
  facet normal 0.357437 0.619099 0.699253
    outer loop
      vertex 0.556362 0.617902 0.55557
      vertex 0.256938 0.790775 0.55557
      vertex 0.371749 0.412869 0.83147
    endloop
  endfacet
  facet normal 0.357437 0.619099 0.699253
    outer loop
      vertex 0.256938 0.790775 0.55557
      vertex 0.171681 0.528379 0.83147
      vertex 0.371749 0.412869 0.83147
    endloop
  endfacet
  facet normal 0.0747247 0.710958 0.699253
    outer loop
      vertex 0.256938 0.790775 0.55557
      vertex -0.0869122 0.826915 0.55557
      vertex 0.171681 0.528379 0.83147
    endloop
  endfacet
  facet normal 0.0747247 0.710958 0.699253
    outer loop
      vertex -0.0869122 0.826915 0.55557
      vertex -0.0580729 0.552527 0.83147
      vertex 0.171681 0.528379 0.83147
    endloop
  endfacet
  facet normal -0.220908 0.679886 0.699253
    outer loop
      vertex -0.0869122 0.826915 0.55557
      vertex -0.415735 0.720074 0.55557
      vertex -0.0580729 0.552527 0.83147
    endloop
  endfacet
  facet normal -0.220908 0.679886 0.699253
    outer loop
      vertex -0.415735 0.720074 0.55557
      vertex -0.277785 0.481138 0.83147
      vertex -0.0580729 0.552527 0.83147
    endloop
  endfacet
  facet normal -0.478344 0.531255 0.699253
    outer loop
      vertex -0.415735 0.720074 0.55557
      vertex -0.672673 0.488726 0.55557
      vertex -0.277785 0.481138 0.83147
    endloop
  endfacet
  facet normal -0.478344 0.531255 0.699253
    outer loop
      vertex -0.672673 0.488726 0.55557
      vertex -0.449466 0.326556 0.83147
      vertex -0.277785 0.481138 0.83147
    endloop
  endfacet
  facet normal -0.65307 0.290766 0.699253
    outer loop
      vertex -0.672673 0.488726 0.55557
      vertex -0.8133 0.172872 0.55557
      vertex -0.449466 0.326556 0.83147
    endloop
  endfacet
  facet normal -0.65307 0.290766 0.699253
    outer loop
      vertex -0.8133 0.172872 0.55557
      vertex -0.54343 0.11551 0.83147
      vertex -0.449466 0.326556 0.83147
    endloop
  endfacet
  facet normal -0.714875 0 0.699253
    outer loop
      vertex -0.8133 0.172872 0.55557
      vertex -0.8133 -0.172872 0.55557
      vertex -0.54343 0.11551 0.83147
    endloop
  endfacet
  facet normal -0.714875 0 0.699253
    outer loop
      vertex -0.8133 -0.172872 0.55557
      vertex -0.54343 -0.11551 0.83147
      vertex -0.54343 0.11551 0.83147
    endloop
  endfacet
  facet normal -0.65307 -0.290766 0.699253
    outer loop
      vertex -0.8133 -0.172872 0.55557
      vertex -0.672673 -0.488726 0.55557
      vertex -0.54343 -0.11551 0.83147
    endloop
  endfacet
  facet normal -0.65307 -0.290766 0.699253
    outer loop
      vertex -0.672673 -0.488726 0.55557
      vertex -0.449466 -0.326556 0.83147
      vertex -0.54343 -0.11551 0.83147
    endloop
  endfacet
  facet normal -0.478344 -0.531255 0.699253
    outer loop
      vertex -0.672673 -0.488726 0.55557
      vertex -0.415735 -0.720074 0.55557
      vertex -0.449466 -0.326556 0.83147
    endloop
  endfacet
  facet normal -0.478344 -0.531255 0.699253
    outer loop
      vertex -0.415735 -0.720074 0.55557
      vertex -0.277785 -0.481138 0.83147
      vertex -0.449466 -0.326556 0.83147
    endloop
  endfacet
  facet normal -0.220908 -0.679886 0.699253
    outer loop
      vertex -0.415735 -0.720074 0.55557
      vertex -0.0869122 -0.826915 0.55557
      vertex -0.277785 -0.481138 0.83147
    endloop
  endfacet
  facet normal -0.220908 -0.679886 0.699253
    outer loop
      vertex -0.0869122 -0.826915 0.55557
      vertex -0.0580729 -0.552527 0.83147
      vertex -0.277785 -0.481138 0.83147
    endloop
  endfacet
  facet normal 0.0747247 -0.710958 0.699253
    outer loop
      vertex -0.0869122 -0.826915 0.55557
      vertex 0.256938 -0.790775 0.55557
      vertex -0.0580729 -0.552527 0.83147
    endloop
  endfacet
  facet normal 0.0747247 -0.710958 0.699253
    outer loop
      vertex 0.256938 -0.790775 0.55557
      vertex 0.171681 -0.528379 0.83147
      vertex -0.0580729 -0.552527 0.83147
    endloop
  endfacet
  facet normal 0.357437 -0.619099 0.699253
    outer loop
      vertex 0.256938 -0.790775 0.55557
      vertex 0.556362 -0.617902 0.55557
      vertex 0.171681 -0.528379 0.83147
    endloop
  endfacet
  facet normal 0.357437 -0.619099 0.699253
    outer loop
      vertex 0.556362 -0.617902 0.55557
      vertex 0.371749 -0.412869 0.83147
      vertex 0.171681 -0.528379 0.83147
    endloop
  endfacet
  facet normal 0.578346 -0.420193 0.699253
    outer loop
      vertex 0.556362 -0.617902 0.55557
      vertex 0.759585 -0.338189 0.55557
      vertex 0.371749 -0.412869 0.83147
    endloop
  endfacet
  facet normal 0.578346 -0.420193 0.699253
    outer loop
      vertex 0.759585 -0.338189 0.55557
      vertex 0.507539 -0.225971 0.83147
      vertex 0.371749 -0.412869 0.83147
    endloop
  endfacet
  facet normal 0.699253 -0.148631 0.699253
    outer loop
      vertex 0.759585 -0.338189 0.55557
      vertex 0.83147 0 0.55557
      vertex 0.507539 -0.225971 0.83147
    endloop
  endfacet
  facet normal 0.699253 -0.148631 0.699253
    outer loop
      vertex 0.83147 0 0.55557
      vertex 0.55557 0 0.83147
      vertex 0.507539 -0.225971 0.83147
    endloop
  endfacet
  facet normal 0.906565 0.192696 0.375511
    outer loop
      vertex 0.980785 0 0.19509
      vertex 0.895992 0.398921 0.19509
      vertex 0.83147 0 0.55557
    endloop
  endfacet
  facet normal 0.906565 0.192696 0.375511
    outer loop
      vertex 0.895992 0.398921 0.19509
      vertex 0.759585 0.338189 0.55557
      vertex 0.83147 0 0.55557
    endloop
  endfacet
  facet normal 0.749811 0.54477 0.375511
    outer loop
      vertex 0.895992 0.398921 0.19509
      vertex 0.656273 0.728866 0.19509
      vertex 0.759585 0.338189 0.55557
    endloop
  endfacet
  facet normal 0.749811 0.54477 0.375511
    outer loop
      vertex 0.656273 0.728866 0.19509
      vertex 0.556362 0.617902 0.55557
      vertex 0.759585 0.338189 0.55557
    endloop
  endfacet
  facet normal 0.463409 0.802648 0.375511
    outer loop
      vertex 0.656273 0.728866 0.19509
      vertex 0.303079 0.932782 0.19509
      vertex 0.556362 0.617902 0.55557
    endloop
  endfacet
  facet normal 0.463409 0.802648 0.375511
    outer loop
      vertex 0.303079 0.932782 0.19509
      vertex 0.256938 0.790775 0.55557
      vertex 0.556362 0.617902 0.55557
    endloop
  endfacet
  facet normal 0.0968788 0.921741 0.375511
    outer loop
      vertex 0.303079 0.932782 0.19509
      vertex -0.10252 0.975412 0.19509
      vertex 0.256938 0.790775 0.55557
    endloop
  endfacet
  facet normal 0.0968788 0.921741 0.375511
    outer loop
      vertex -0.10252 0.975412 0.19509
      vertex -0.0869122 0.826915 0.55557
      vertex 0.256938 0.790775 0.55557
    endloop
  endfacet
  facet normal -0.286402 0.881456 0.375511
    outer loop
      vertex -0.10252 0.975412 0.19509
      vertex -0.490393 0.849385 0.19509
      vertex -0.0869122 0.826915 0.55557
    endloop
  endfacet
  facet normal -0.286402 0.881456 0.375511
    outer loop
      vertex -0.490393 0.849385 0.19509
      vertex -0.415735 0.720074 0.55557
      vertex -0.0869122 0.826915 0.55557
    endloop
  endfacet
  facet normal -0.620162 0.68876 0.375511
    outer loop
      vertex -0.490393 0.849385 0.19509
      vertex -0.793472 0.576491 0.19509
      vertex -0.415735 0.720074 0.55557
    endloop
  endfacet
  facet normal -0.620162 0.68876 0.375511
    outer loop
      vertex -0.793472 0.576491 0.19509
      vertex -0.672673 0.488726 0.55557
      vertex -0.415735 0.720074 0.55557
    endloop
  endfacet
  facet normal -0.84669 0.376971 0.375511
    outer loop
      vertex -0.793472 0.576491 0.19509
      vertex -0.959353 0.203917 0.19509
      vertex -0.672673 0.488726 0.55557
    endloop
  endfacet
  facet normal -0.84669 0.376971 0.375511
    outer loop
      vertex -0.959353 0.203917 0.19509
      vertex -0.8133 0.172872 0.55557
      vertex -0.672673 0.488726 0.55557
    endloop
  endfacet
  facet normal -0.926818 0 0.375511
    outer loop
      vertex -0.959353 0.203917 0.19509
      vertex -0.959353 -0.203917 0.19509
      vertex -0.8133 0.172872 0.55557
    endloop
  endfacet
  facet normal -0.926818 0 0.375511
    outer loop
      vertex -0.959353 -0.203917 0.19509
      vertex -0.8133 -0.172872 0.55557
      vertex -0.8133 0.172872 0.55557
    endloop
  endfacet
  facet normal -0.84669 -0.376971 0.375511
    outer loop
      vertex -0.959353 -0.203917 0.19509
      vertex -0.793472 -0.576491 0.19509
      vertex -0.8133 -0.172872 0.55557
    endloop
  endfacet
  facet normal -0.84669 -0.376971 0.375511
    outer loop
      vertex -0.793472 -0.576491 0.19509
      vertex -0.672673 -0.488726 0.55557
      vertex -0.8133 -0.172872 0.55557
    endloop
  endfacet
  facet normal -0.620162 -0.68876 0.375511
    outer loop
      vertex -0.793472 -0.576491 0.19509
      vertex -0.490393 -0.849385 0.19509
      vertex -0.672673 -0.488726 0.55557
    endloop
  endfacet
  facet normal -0.620162 -0.68876 0.375511
    outer loop
      vertex -0.490393 -0.849385 0.19509
      vertex -0.415735 -0.720074 0.55557
      vertex -0.672673 -0.488726 0.55557
    endloop
  endfacet
  facet normal -0.286402 -0.881456 0.375511
    outer loop
      vertex -0.490393 -0.849385 0.19509
      vertex -0.10252 -0.975412 0.19509
      vertex -0.415735 -0.720074 0.55557
    endloop
  endfacet
  facet normal -0.286402 -0.881456 0.375511
    outer loop
      vertex -0.10252 -0.975412 0.19509
      vertex -0.0869122 -0.826915 0.55557
      vertex -0.415735 -0.720074 0.55557
    endloop
  endfacet
  facet normal 0.0968788 -0.921741 0.375511
    outer loop
      vertex -0.10252 -0.975412 0.19509
      vertex 0.303079 -0.932782 0.19509
      vertex -0.0869122 -0.826915 0.55557
    endloop
  endfacet
  facet normal 0.0968788 -0.921741 0.375511
    outer loop
      vertex 0.303079 -0.932782 0.19509
      vertex 0.256938 -0.790775 0.55557
      vertex -0.0869122 -0.826915 0.55557
    endloop
  endfacet
  facet normal 0.463409 -0.802648 0.375511
    outer loop
      vertex 0.303079 -0.932782 0.19509
      vertex 0.656273 -0.728866 0.19509
      vertex 0.256938 -0.790775 0.55557
    endloop
  endfacet
  facet normal 0.463409 -0.802648 0.375511
    outer loop
      vertex 0.656273 -0.728866 0.19509
      vertex 0.556362 -0.617902 0.55557
      vertex 0.256938 -0.790775 0.55557
    endloop
  endfacet
  facet normal 0.749811 -0.54477 0.375511
    outer loop
      vertex 0.656273 -0.728866 0.19509
      vertex 0.895992 -0.398921 0.19509
      vertex 0.556362 -0.617902 0.55557
    endloop
  endfacet
  facet normal 0.749811 -0.54477 0.375511
    outer loop
      vertex 0.895992 -0.398921 0.19509
      vertex 0.759585 -0.338189 0.55557
      vertex 0.556362 -0.617902 0.55557
    endloop
  endfacet
  facet normal 0.906565 -0.192696 0.375511
    outer loop
      vertex 0.895992 -0.398921 0.19509
      vertex 0.980785 0 0.19509
      vertex 0.759585 -0.338189 0.55557
    endloop
  endfacet
  facet normal 0.906565 -0.192696 0.375511
    outer loop
      vertex 0.980785 0 0.19509
      vertex 0.83147 0 0.55557
      vertex 0.759585 -0.338189 0.55557
    endloop
  endfacet
  facet normal 0.978148 0.207912 -0
    outer loop
      vertex 0.980785 0 -0.19509
      vertex 0.895992 0.398921 -0.19509
      vertex 0.980785 0 0.19509
    endloop
  endfacet
  facet normal 0.978148 0.207912 -0
    outer loop
      vertex 0.895992 0.398921 -0.19509
      vertex 0.895992 0.398921 0.19509
      vertex 0.980785 0 0.19509
    endloop
  endfacet
  facet normal 0.809017 0.587785 -0
    outer loop
      vertex 0.895992 0.398921 -0.19509
      vertex 0.656273 0.728866 -0.19509
      vertex 0.895992 0.398921 0.19509
    endloop
  endfacet
  facet normal 0.809017 0.587785 -0
    outer loop
      vertex 0.656273 0.728866 -0.19509
      vertex 0.656273 0.728866 0.19509
      vertex 0.895992 0.398921 0.19509
    endloop
  endfacet
  facet normal 0.5 0.866025 -0
    outer loop
      vertex 0.656273 0.728866 -0.19509
      vertex 0.303079 0.932782 -0.19509
      vertex 0.656273 0.728866 0.19509
    endloop
  endfacet
  facet normal 0.5 0.866025 -0
    outer loop
      vertex 0.303079 0.932782 -0.19509
      vertex 0.303079 0.932782 0.19509
      vertex 0.656273 0.728866 0.19509
    endloop
  endfacet
  facet normal 0.104528 0.994522 -0
    outer loop
      vertex 0.303079 0.932782 -0.19509
      vertex -0.10252 0.975412 -0.19509
      vertex 0.303079 0.932782 0.19509
    endloop
  endfacet
  facet normal 0.104528 0.994522 -0
    outer loop
      vertex -0.10252 0.975412 -0.19509
      vertex -0.10252 0.975412 0.19509
      vertex 0.303079 0.932782 0.19509
    endloop
  endfacet
  facet normal -0.309017 0.951057 0
    outer loop
      vertex -0.10252 0.975412 -0.19509
      vertex -0.490393 0.849385 -0.19509
      vertex -0.10252 0.975412 0.19509
    endloop
  endfacet
  facet normal -0.309017 0.951057 0
    outer loop
      vertex -0.490393 0.849385 -0.19509
      vertex -0.490393 0.849385 0.19509
      vertex -0.10252 0.975412 0.19509
    endloop
  endfacet
  facet normal -0.669131 0.743145 0
    outer loop
      vertex -0.490393 0.849385 -0.19509
      vertex -0.793472 0.576491 -0.19509
      vertex -0.490393 0.849385 0.19509
    endloop
  endfacet
  facet normal -0.669131 0.743145 0
    outer loop
      vertex -0.793472 0.576491 -0.19509
      vertex -0.793472 0.576491 0.19509
      vertex -0.490393 0.849385 0.19509
    endloop
  endfacet
  facet normal -0.913545 0.406737 0
    outer loop
      vertex -0.793472 0.576491 -0.19509
      vertex -0.959353 0.203917 -0.19509
      vertex -0.793472 0.576491 0.19509
    endloop
  endfacet
  facet normal -0.913545 0.406737 0
    outer loop
      vertex -0.959353 0.203917 -0.19509
      vertex -0.959353 0.203917 0.19509
      vertex -0.793472 0.576491 0.19509
    endloop
  endfacet
  facet normal -1 0 0
    outer loop
      vertex -0.959353 0.203917 -0.19509
      vertex -0.959353 -0.203917 -0.19509
      vertex -0.959353 0.203917 0.19509
    endloop
  endfacet
  facet normal -1 0 0
    outer loop
      vertex -0.959353 -0.203917 -0.19509
      vertex -0.959353 -0.203917 0.19509
      vertex -0.959353 0.203917 0.19509
    endloop
  endfacet
  facet normal -0.913545 -0.406737 0
    outer loop
      vertex -0.959353 -0.203917 -0.19509
      vertex -0.793472 -0.576491 -0.19509
      vertex -0.959353 -0.203917 0.19509
    endloop
  endfacet
  facet normal -0.913545 -0.406737 0
    outer loop
      vertex -0.793472 -0.576491 -0.19509
      vertex -0.793472 -0.576491 0.19509
      vertex -0.959353 -0.203917 0.19509
    endloop
  endfacet
  facet normal -0.669131 -0.743145 0
    outer loop
      vertex -0.793472 -0.576491 -0.19509
      vertex -0.490393 -0.849385 -0.19509
      vertex -0.793472 -0.576491 0.19509
    endloop
  endfacet
  facet normal -0.669131 -0.743145 0
    outer loop
      vertex -0.490393 -0.849385 -0.19509
      vertex -0.490393 -0.849385 0.19509
      vertex -0.793472 -0.576491 0.19509
    endloop
  endfacet
  facet normal -0.309017 -0.951057 0
    outer loop
      vertex -0.490393 -0.849385 -0.19509
      vertex -0.10252 -0.975412 -0.19509
      vertex -0.490393 -0.849385 0.19509
    endloop
  endfacet
  facet normal -0.309017 -0.951057 0
    outer loop
      vertex -0.10252 -0.975412 -0.19509
      vertex -0.10252 -0.975412 0.19509
      vertex -0.490393 -0.849385 0.19509
    endloop
  endfacet
  facet normal 0.104528 -0.994522 0
    outer loop
      vertex -0.10252 -0.975412 -0.19509
      vertex 0.303079 -0.932782 -0.19509
      vertex -0.10252 -0.975412 0.19509
    endloop
  endfacet
  facet normal 0.104528 -0.994522 0
    outer loop
      vertex 0.303079 -0.932782 -0.19509
      vertex 0.303079 -0.932782 0.19509
      vertex -0.10252 -0.975412 0.19509
    endloop
  endfacet
  facet normal 0.5 -0.866025 0
    outer loop
      vertex 0.303079 -0.932782 -0.19509
      vertex 0.656273 -0.728866 -0.19509
      vertex 0.303079 -0.932782 0.19509
    endloop
  endfacet
  facet normal 0.5 -0.866025 0
    outer loop
      vertex 0.656273 -0.728866 -0.19509
      vertex 0.656273 -0.728866 0.19509
      vertex 0.303079 -0.932782 0.19509
    endloop
  endfacet
  facet normal 0.809017 -0.587785 0
    outer loop
      vertex 0.656273 -0.728866 -0.19509
      vertex 0.895992 -0.398921 -0.19509
      vertex 0.656273 -0.728866 0.19509
    endloop
  endfacet
  facet normal 0.809017 -0.587785 0
    outer loop
      vertex 0.895992 -0.398921 -0.19509
      vertex 0.895992 -0.398921 0.19509
      vertex 0.656273 -0.728866 0.19509
    endloop
  endfacet
  facet normal 0.978148 -0.207912 0
    outer loop
      vertex 0.895992 -0.398921 -0.19509
      vertex 0.980785 0 -0.19509
      vertex 0.895992 -0.398921 0.19509
    endloop
  endfacet
  facet normal 0.978148 -0.207912 0
    outer loop
      vertex 0.980785 0 -0.19509
      vertex 0.980785 0 0.19509
      vertex 0.895992 -0.398921 0.19509
    endloop
  endfacet
  facet normal 0.906565 0.192696 -0.375511
    outer loop
      vertex 0.83147 0 -0.55557
      vertex 0.759585 0.338189 -0.55557
      vertex 0.980785 0 -0.19509
    endloop
  endfacet
  facet normal 0.906565 0.192696 -0.375511
    outer loop
      vertex 0.759585 0.338189 -0.55557
      vertex 0.895992 0.398921 -0.19509
      vertex 0.980785 0 -0.19509
    endloop
  endfacet
  facet normal 0.749811 0.54477 -0.375511
    outer loop
      vertex 0.759585 0.338189 -0.55557
      vertex 0.556362 0.617902 -0.55557
      vertex 0.895992 0.398921 -0.19509
    endloop
  endfacet
  facet normal 0.749811 0.54477 -0.375511
    outer loop
      vertex 0.556362 0.617902 -0.55557
      vertex 0.656273 0.728866 -0.19509
      vertex 0.895992 0.398921 -0.19509
    endloop
  endfacet
  facet normal 0.463409 0.802648 -0.375511
    outer loop
      vertex 0.556362 0.617902 -0.55557
      vertex 0.256938 0.790775 -0.55557
      vertex 0.656273 0.728866 -0.19509
    endloop
  endfacet
  facet normal 0.463409 0.802648 -0.375511
    outer loop
      vertex 0.256938 0.790775 -0.55557
      vertex 0.303079 0.932782 -0.19509
      vertex 0.656273 0.728866 -0.19509
    endloop
  endfacet
  facet normal 0.0968788 0.921741 -0.375511
    outer loop
      vertex 0.256938 0.790775 -0.55557
      vertex -0.0869122 0.826915 -0.55557
      vertex 0.303079 0.932782 -0.19509
    endloop
  endfacet
  facet normal 0.0968788 0.921741 -0.375511
    outer loop
      vertex -0.0869122 0.826915 -0.55557
      vertex -0.10252 0.975412 -0.19509
      vertex 0.303079 0.932782 -0.19509
    endloop
  endfacet
  facet normal -0.286402 0.881456 -0.375511
    outer loop
      vertex -0.0869122 0.826915 -0.55557
      vertex -0.415735 0.720074 -0.55557
      vertex -0.10252 0.975412 -0.19509
    endloop
  endfacet
  facet normal -0.286402 0.881456 -0.375511
    outer loop
      vertex -0.415735 0.720074 -0.55557
      vertex -0.490393 0.849385 -0.19509
      vertex -0.10252 0.975412 -0.19509
    endloop
  endfacet
  facet normal -0.620162 0.68876 -0.375511
    outer loop
      vertex -0.415735 0.720074 -0.55557
      vertex -0.672673 0.488726 -0.55557
      vertex -0.490393 0.849385 -0.19509
    endloop
  endfacet
  facet normal -0.620162 0.68876 -0.375511
    outer loop
      vertex -0.672673 0.488726 -0.55557
      vertex -0.793472 0.576491 -0.19509
      vertex -0.490393 0.849385 -0.19509
    endloop
  endfacet
  facet normal -0.84669 0.376971 -0.375511
    outer loop
      vertex -0.672673 0.488726 -0.55557
      vertex -0.8133 0.172872 -0.55557
      vertex -0.793472 0.576491 -0.19509
    endloop
  endfacet
  facet normal -0.84669 0.376971 -0.375511
    outer loop
      vertex -0.8133 0.172872 -0.55557
      vertex -0.959353 0.203917 -0.19509
      vertex -0.793472 0.576491 -0.19509
    endloop
  endfacet
  facet normal -0.926818 -0 -0.375511
    outer loop
      vertex -0.8133 0.172872 -0.55557
      vertex -0.8133 -0.172872 -0.55557
      vertex -0.959353 0.203917 -0.19509
    endloop
  endfacet
  facet normal -0.926818 0 -0.375511
    outer loop
      vertex -0.8133 -0.172872 -0.55557
      vertex -0.959353 -0.203917 -0.19509
      vertex -0.959353 0.203917 -0.19509
    endloop
  endfacet
  facet normal -0.84669 -0.376971 -0.375511
    outer loop
      vertex -0.8133 -0.172872 -0.55557
      vertex -0.672673 -0.488726 -0.55557
      vertex -0.959353 -0.203917 -0.19509
    endloop
  endfacet
  facet normal -0.84669 -0.376971 -0.375511
    outer loop
      vertex -0.672673 -0.488726 -0.55557
      vertex -0.793472 -0.576491 -0.19509
      vertex -0.959353 -0.203917 -0.19509
    endloop
  endfacet
  facet normal -0.620162 -0.68876 -0.375511
    outer loop
      vertex -0.672673 -0.488726 -0.55557
      vertex -0.415735 -0.720074 -0.55557
      vertex -0.793472 -0.576491 -0.19509
    endloop
  endfacet
  facet normal -0.620162 -0.68876 -0.375511
    outer loop
      vertex -0.415735 -0.720074 -0.55557
      vertex -0.490393 -0.849385 -0.19509
      vertex -0.793472 -0.576491 -0.19509
    endloop
  endfacet
  facet normal -0.286402 -0.881456 -0.375511
    outer loop
      vertex -0.415735 -0.720074 -0.55557
      vertex -0.0869122 -0.826915 -0.55557
      vertex -0.490393 -0.849385 -0.19509
    endloop
  endfacet
  facet normal -0.286402 -0.881456 -0.375511
    outer loop
      vertex -0.0869122 -0.826915 -0.55557
      vertex -0.10252 -0.975412 -0.19509
      vertex -0.490393 -0.849385 -0.19509
    endloop
  endfacet
  facet normal 0.0968788 -0.921741 -0.375511
    outer loop
      vertex -0.0869122 -0.826915 -0.55557
      vertex 0.256938 -0.790775 -0.55557
      vertex -0.10252 -0.975412 -0.19509
    endloop
  endfacet
  facet normal 0.0968788 -0.921741 -0.375511
    outer loop
      vertex 0.256938 -0.790775 -0.55557
      vertex 0.303079 -0.932782 -0.19509
      vertex -0.10252 -0.975412 -0.19509
    endloop
  endfacet
  facet normal 0.463409 -0.802648 -0.375511
    outer loop
      vertex 0.256938 -0.790775 -0.55557
      vertex 0.556362 -0.617902 -0.55557
      vertex 0.303079 -0.932782 -0.19509
    endloop
  endfacet
  facet normal 0.463409 -0.802648 -0.375511
    outer loop
      vertex 0.556362 -0.617902 -0.55557
      vertex 0.656273 -0.728866 -0.19509
      vertex 0.303079 -0.932782 -0.19509
    endloop
  endfacet
  facet normal 0.749811 -0.54477 -0.375511
    outer loop
      vertex 0.556362 -0.617902 -0.55557
      vertex 0.759585 -0.338189 -0.55557
      vertex 0.656273 -0.728866 -0.19509
    endloop
  endfacet
  facet normal 0.749811 -0.54477 -0.375511
    outer loop
      vertex 0.759585 -0.338189 -0.55557
      vertex 0.895992 -0.398921 -0.19509
      vertex 0.656273 -0.728866 -0.19509
    endloop
  endfacet
  facet normal 0.906565 -0.192696 -0.375511
    outer loop
      vertex 0.759585 -0.338189 -0.55557
      vertex 0.83147 0 -0.55557
      vertex 0.895992 -0.398921 -0.19509
    endloop
  endfacet
  facet normal 0.906565 -0.192696 -0.375511
    outer loop
      vertex 0.83147 0 -0.55557
      vertex 0.980785 0 -0.19509
      vertex 0.895992 -0.398921 -0.19509
    endloop
  endfacet
  facet normal 0.699253 0.148631 -0.699253
    outer loop
      vertex 0.55557 0 -0.83147
      vertex 0.507539 0.225971 -0.83147
      vertex 0.83147 0 -0.55557
    endloop
  endfacet
  facet normal 0.699253 0.148631 -0.699253
    outer loop
      vertex 0.507539 0.225971 -0.83147
      vertex 0.759585 0.338189 -0.55557
      vertex 0.83147 0 -0.55557
    endloop
  endfacet
  facet normal 0.578346 0.420193 -0.699253
    outer loop
      vertex 0.507539 0.225971 -0.83147
      vertex 0.371749 0.412869 -0.83147
      vertex 0.759585 0.338189 -0.55557
    endloop
  endfacet
  facet normal 0.578346 0.420193 -0.699253
    outer loop
      vertex 0.371749 0.412869 -0.83147
      vertex 0.556362 0.617902 -0.55557
      vertex 0.759585 0.338189 -0.55557
    endloop
  endfacet
  facet normal 0.357437 0.619099 -0.699253
    outer loop
      vertex 0.371749 0.412869 -0.83147
      vertex 0.171681 0.528379 -0.83147
      vertex 0.556362 0.617902 -0.55557
    endloop
  endfacet
  facet normal 0.357437 0.619099 -0.699253
    outer loop
      vertex 0.171681 0.528379 -0.83147
      vertex 0.256938 0.790775 -0.55557
      vertex 0.556362 0.617902 -0.55557
    endloop
  endfacet
  facet normal 0.0747247 0.710958 -0.699253
    outer loop
      vertex 0.171681 0.528379 -0.83147
      vertex -0.0580729 0.552527 -0.83147
      vertex 0.256938 0.790775 -0.55557
    endloop
  endfacet
  facet normal 0.0747247 0.710958 -0.699253
    outer loop
      vertex -0.0580729 0.552527 -0.83147
      vertex -0.0869122 0.826915 -0.55557
      vertex 0.256938 0.790775 -0.55557
    endloop
  endfacet
  facet normal -0.220908 0.679886 -0.699253
    outer loop
      vertex -0.0580729 0.552527 -0.83147
      vertex -0.277785 0.481138 -0.83147
      vertex -0.0869122 0.826915 -0.55557
    endloop
  endfacet
  facet normal -0.220908 0.679886 -0.699253
    outer loop
      vertex -0.277785 0.481138 -0.83147
      vertex -0.415735 0.720074 -0.55557
      vertex -0.0869122 0.826915 -0.55557
    endloop
  endfacet
  facet normal -0.478344 0.531255 -0.699253
    outer loop
      vertex -0.277785 0.481138 -0.83147
      vertex -0.449466 0.326556 -0.83147
      vertex -0.415735 0.720074 -0.55557
    endloop
  endfacet
  facet normal -0.478344 0.531255 -0.699253
    outer loop
      vertex -0.449466 0.326556 -0.83147
      vertex -0.672673 0.488726 -0.55557
      vertex -0.415735 0.720074 -0.55557
    endloop
  endfacet
  facet normal -0.65307 0.290766 -0.699253
    outer loop
      vertex -0.449466 0.326556 -0.83147
      vertex -0.54343 0.11551 -0.83147
      vertex -0.672673 0.488726 -0.55557
    endloop
  endfacet
  facet normal -0.65307 0.290766 -0.699253
    outer loop
      vertex -0.54343 0.11551 -0.83147
      vertex -0.8133 0.172872 -0.55557
      vertex -0.672673 0.488726 -0.55557
    endloop
  endfacet
  facet normal -0.714875 -0 -0.699253
    outer loop
      vertex -0.54343 0.11551 -0.83147
      vertex -0.54343 -0.11551 -0.83147
      vertex -0.8133 0.172872 -0.55557
    endloop
  endfacet
  facet normal -0.714875 0 -0.699253
    outer loop
      vertex -0.54343 -0.11551 -0.83147
      vertex -0.8133 -0.172872 -0.55557
      vertex -0.8133 0.172872 -0.55557
    endloop
  endfacet
  facet normal -0.65307 -0.290766 -0.699253
    outer loop
      vertex -0.54343 -0.11551 -0.83147
      vertex -0.449466 -0.326556 -0.83147
      vertex -0.8133 -0.172872 -0.55557
    endloop
  endfacet
  facet normal -0.65307 -0.290766 -0.699253
    outer loop
      vertex -0.449466 -0.326556 -0.83147
      vertex -0.672673 -0.488726 -0.55557
      vertex -0.8133 -0.172872 -0.55557
    endloop
  endfacet
  facet normal -0.478344 -0.531255 -0.699253
    outer loop
      vertex -0.449466 -0.326556 -0.83147
      vertex -0.277785 -0.481138 -0.83147
      vertex -0.672673 -0.488726 -0.55557
    endloop
  endfacet
  facet normal -0.478344 -0.531255 -0.699253
    outer loop
      vertex -0.277785 -0.481138 -0.83147
      vertex -0.415735 -0.720074 -0.55557
      vertex -0.672673 -0.488726 -0.55557
    endloop
  endfacet
  facet normal -0.220908 -0.679886 -0.699253
    outer loop
      vertex -0.277785 -0.481138 -0.83147
      vertex -0.0580729 -0.552527 -0.83147
      vertex -0.415735 -0.720074 -0.55557
    endloop
  endfacet
  facet normal -0.220908 -0.679886 -0.699253
    outer loop
      vertex -0.0580729 -0.552527 -0.83147
      vertex -0.0869122 -0.826915 -0.55557
      vertex -0.415735 -0.720074 -0.55557
    endloop
  endfacet
  facet normal 0.0747247 -0.710958 -0.699253
    outer loop
      vertex -0.0580729 -0.552527 -0.83147
      vertex 0.171681 -0.528379 -0.83147
      vertex -0.0869122 -0.826915 -0.55557
    endloop
  endfacet
  facet normal 0.0747247 -0.710958 -0.699253
    outer loop
      vertex 0.171681 -0.528379 -0.83147
      vertex 0.256938 -0.790775 -0.55557
      vertex -0.0869122 -0.826915 -0.55557
    endloop
  endfacet
  facet normal 0.357437 -0.619099 -0.699253
    outer loop
      vertex 0.171681 -0.528379 -0.83147
      vertex 0.371749 -0.412869 -0.83147
      vertex 0.256938 -0.790775 -0.55557
    endloop
  endfacet
  facet normal 0.357437 -0.619099 -0.699253
    outer loop
      vertex 0.371749 -0.412869 -0.83147
      vertex 0.556362 -0.617902 -0.55557
      vertex 0.256938 -0.790775 -0.55557
    endloop
  endfacet
  facet normal 0.578346 -0.420193 -0.699253
    outer loop
      vertex 0.371749 -0.412869 -0.83147
      vertex 0.507539 -0.225971 -0.83147
      vertex 0.556362 -0.617902 -0.55557
    endloop
  endfacet
  facet normal 0.578346 -0.420193 -0.699253
    outer loop
      vertex 0.507539 -0.225971 -0.83147
      vertex 0.759585 -0.338189 -0.55557
      vertex 0.556362 -0.617902 -0.55557
    endloop
  endfacet
  facet normal 0.699253 -0.148631 -0.699253
    outer loop
      vertex 0.507539 -0.225971 -0.83147
      vertex 0.55557 0 -0.83147
      vertex 0.759585 -0.338189 -0.55557
    endloop
  endfacet
  facet normal 0.699253 -0.148631 -0.699253
    outer loop
      vertex 0.55557 0 -0.83147
      vertex 0.83147 0 -0.55557
      vertex 0.759585 -0.338189 -0.55557
    endloop
  endfacet
  facet normal 0.381424 0.0810741 -0.920838
    outer loop
      vertex 0.19509 0 -0.980785
      vertex 0.178224 0.0793504 -0.980785
      vertex 0.55557 0 -0.83147
    endloop
  endfacet
  facet normal 0.381424 0.0810741 -0.920838
    outer loop
      vertex 0.178224 0.0793504 -0.980785
      vertex 0.507539 0.225971 -0.83147
      vertex 0.55557 0 -0.83147
    endloop
  endfacet
  facet normal 0.315472 0.229204 -0.920838
    outer loop
      vertex 0.178224 0.0793504 -0.980785
      vertex 0.130541 0.14498 -0.980785
      vertex 0.507539 0.225971 -0.83147
    endloop
  endfacet
  facet normal 0.315472 0.229204 -0.920838
    outer loop
      vertex 0.130541 0.14498 -0.980785
      vertex 0.371749 0.412869 -0.83147
      vertex 0.507539 0.225971 -0.83147
    endloop
  endfacet
  facet normal 0.194972 0.337702 -0.920838
    outer loop
      vertex 0.130541 0.14498 -0.980785
      vertex 0.0602862 0.185542 -0.980785
      vertex 0.371749 0.412869 -0.83147
    endloop
  endfacet
  facet normal 0.194972 0.337702 -0.920838
    outer loop
      vertex 0.0602862 0.185542 -0.980785
      vertex 0.171681 0.528379 -0.83147
      vertex 0.371749 0.412869 -0.83147
    endloop
  endfacet
  facet normal 0.0407603 0.387809 -0.920838
    outer loop
      vertex 0.0602862 0.185542 -0.980785
      vertex -0.0203925 0.194022 -0.980785
      vertex 0.171681 0.528379 -0.83147
    endloop
  endfacet
  facet normal 0.0407603 0.387809 -0.920838
    outer loop
      vertex -0.0203925 0.194022 -0.980785
      vertex -0.0580729 0.552527 -0.83147
      vertex 0.171681 0.528379 -0.83147
    endloop
  endfacet
  facet normal -0.1205 0.37086 -0.920838
    outer loop
      vertex -0.0203925 0.194022 -0.980785
      vertex -0.0975452 0.168953 -0.980785
      vertex -0.0580729 0.552527 -0.83147
    endloop
  endfacet
  facet normal -0.1205 0.37086 -0.920838
    outer loop
      vertex -0.0975452 0.168953 -0.980785
      vertex -0.277785 0.481138 -0.83147
      vertex -0.0580729 0.552527 -0.83147
    endloop
  endfacet
  facet normal -0.260924 0.289786 -0.920838
    outer loop
      vertex -0.0975452 0.168953 -0.980785
      vertex -0.157831 0.114671 -0.980785
      vertex -0.277785 0.481138 -0.83147
    endloop
  endfacet
  facet normal -0.260924 0.289786 -0.920838
    outer loop
      vertex -0.157831 0.114671 -0.980785
      vertex -0.449466 0.326556 -0.83147
      vertex -0.277785 0.481138 -0.83147
    endloop
  endfacet
  facet normal -0.356232 0.158605 -0.920838
    outer loop
      vertex -0.157831 0.114671 -0.980785
      vertex -0.190827 0.0405616 -0.980785
      vertex -0.449466 0.326556 -0.83147
    endloop
  endfacet
  facet normal -0.356232 0.158605 -0.920838
    outer loop
      vertex -0.190827 0.0405616 -0.980785
      vertex -0.54343 0.11551 -0.83147
      vertex -0.449466 0.326556 -0.83147
    endloop
  endfacet
  facet normal -0.389945 -0 -0.920838
    outer loop
      vertex -0.190827 0.0405616 -0.980785
      vertex -0.190827 -0.0405616 -0.980785
      vertex -0.54343 0.11551 -0.83147
    endloop
  endfacet
  facet normal -0.389945 0 -0.920838
    outer loop
      vertex -0.190827 -0.0405616 -0.980785
      vertex -0.54343 -0.11551 -0.83147
      vertex -0.54343 0.11551 -0.83147
    endloop
  endfacet
  facet normal -0.356232 -0.158605 -0.920838
    outer loop
      vertex -0.190827 -0.0405616 -0.980785
      vertex -0.157831 -0.114671 -0.980785
      vertex -0.54343 -0.11551 -0.83147
    endloop
  endfacet
  facet normal -0.356232 -0.158605 -0.920838
    outer loop
      vertex -0.157831 -0.114671 -0.980785
      vertex -0.449466 -0.326556 -0.83147
      vertex -0.54343 -0.11551 -0.83147
    endloop
  endfacet
  facet normal -0.260924 -0.289786 -0.920838
    outer loop
      vertex -0.157831 -0.114671 -0.980785
      vertex -0.0975452 -0.168953 -0.980785
      vertex -0.449466 -0.326556 -0.83147
    endloop
  endfacet
  facet normal -0.260924 -0.289786 -0.920838
    outer loop
      vertex -0.0975452 -0.168953 -0.980785
      vertex -0.277785 -0.481138 -0.83147
      vertex -0.449466 -0.326556 -0.83147
    endloop
  endfacet
  facet normal -0.1205 -0.37086 -0.920838
    outer loop
      vertex -0.0975452 -0.168953 -0.980785
      vertex -0.0203925 -0.194022 -0.980785
      vertex -0.277785 -0.481138 -0.83147
    endloop
  endfacet
  facet normal -0.1205 -0.37086 -0.920838
    outer loop
      vertex -0.0203925 -0.194022 -0.980785
      vertex -0.0580729 -0.552527 -0.83147
      vertex -0.277785 -0.481138 -0.83147
    endloop
  endfacet
  facet normal 0.0407603 -0.387809 -0.920838
    outer loop
      vertex -0.0203925 -0.194022 -0.980785
      vertex 0.0602862 -0.185542 -0.980785
      vertex -0.0580729 -0.552527 -0.83147
    endloop
  endfacet
  facet normal 0.0407603 -0.387809 -0.920838
    outer loop
      vertex 0.0602862 -0.185542 -0.980785
      vertex 0.171681 -0.528379 -0.83147
      vertex -0.0580729 -0.552527 -0.83147
    endloop
  endfacet
  facet normal 0.194972 -0.337702 -0.920838
    outer loop
      vertex 0.0602862 -0.185542 -0.980785
      vertex 0.130541 -0.14498 -0.980785
      vertex 0.171681 -0.528379 -0.83147
    endloop
  endfacet
  facet normal 0.194972 -0.337702 -0.920838
    outer loop
      vertex 0.130541 -0.14498 -0.980785
      vertex 0.371749 -0.412869 -0.83147
      vertex 0.171681 -0.528379 -0.83147
    endloop
  endfacet
  facet normal 0.315472 -0.229204 -0.920838
    outer loop
      vertex 0.130541 -0.14498 -0.980785
      vertex 0.178224 -0.0793504 -0.980785
      vertex 0.371749 -0.412869 -0.83147
    endloop
  endfacet
  facet normal 0.315472 -0.229204 -0.920838
    outer loop
      vertex 0.178224 -0.0793504 -0.980785
      vertex 0.507539 -0.225971 -0.83147
      vertex 0.371749 -0.412869 -0.83147
    endloop
  endfacet
  facet normal 0.381424 -0.0810741 -0.920838
    outer loop
      vertex 0.178224 -0.0793504 -0.980785
      vertex 0.19509 0 -0.980785
      vertex 0.507539 -0.225971 -0.83147
    endloop
  endfacet
  facet normal 0.381424 -0.0810741 -0.920838
    outer loop
      vertex 0.19509 0 -0.980785
      vertex 0.55557 0 -0.83147
      vertex 0.507539 -0.225971 -0.83147
    endloop
  endfacet
  facet normal 0 0 1
    outer loop
      vertex 0.178224 0.0793504 0.980785
      vertex 0.178224 -0.0793504 0.980785
      vertex 0.19509 0 0.980785
    endloop
  endfacet
  facet normal 0 0 1
    outer loop
      vertex 0.130541 0.14498 0.980785
      vertex 0.178224 -0.0793504 0.980785
      vertex 0.178224 0.0793504 0.980785
    endloop
  endfacet
  facet normal 0 0 1
    outer loop
      vertex 0.130541 0.14498 0.980785
      vertex 0.130541 -0.14498 0.980785
      vertex 0.178224 -0.0793504 0.980785
    endloop
  endfacet
  facet normal 0 0 1
    outer loop
      vertex 0.0602862 0.185542 0.980785
      vertex 0.130541 -0.14498 0.980785
      vertex 0.130541 0.14498 0.980785
    endloop
  endfacet
  facet normal 0 0 1
    outer loop
      vertex 0.0602862 0.185542 0.980785
      vertex 0.0602862 -0.185542 0.980785
      vertex 0.130541 -0.14498 0.980785
    endloop
  endfacet
  facet normal 0 0 1
    outer loop
      vertex -0.0203925 0.194022 0.980785
      vertex 0.0602862 -0.185542 0.980785
      vertex 0.0602862 0.185542 0.980785
    endloop
  endfacet
  facet normal 0 0 1
    outer loop
      vertex -0.0203925 0.194022 0.980785
      vertex -0.0203925 -0.194022 0.980785
      vertex 0.0602862 -0.185542 0.980785
    endloop
  endfacet
  facet normal -0 0 1
    outer loop
      vertex -0.0975452 0.168953 0.980785
      vertex -0.0203925 -0.194022 0.980785
      vertex -0.0203925 0.194022 0.980785
    endloop
  endfacet
  facet normal 0 0 1
    outer loop
      vertex -0.0975452 0.168953 0.980785
      vertex -0.0975452 -0.168953 0.980785
      vertex -0.0203925 -0.194022 0.980785
    endloop
  endfacet
  facet normal -0 0 1
    outer loop
      vertex -0.157831 0.114671 0.980785
      vertex -0.0975452 -0.168953 0.980785
      vertex -0.0975452 0.168953 0.980785
    endloop
  endfacet
  facet normal 0 0 1
    outer loop
      vertex -0.157831 0.114671 0.980785
      vertex -0.157831 -0.114671 0.980785
      vertex -0.0975452 -0.168953 0.980785
    endloop
  endfacet
  facet normal -0 0 1
    outer loop
      vertex -0.190827 0.0405616 0.980785
      vertex -0.157831 -0.114671 0.980785
      vertex -0.157831 0.114671 0.980785
    endloop
  endfacet
  facet normal 0 0 1
    outer loop
      vertex -0.157831 -0.114671 0.980785
      vertex -0.190827 0.0405616 0.980785
      vertex -0.190827 -0.0405616 0.980785
    endloop
  endfacet
  facet normal 0 0 -1
    outer loop
      vertex 0.178224 -0.0793504 -0.980785
      vertex 0.178224 0.0793504 -0.980785
      vertex 0.19509 0 -0.980785
    endloop
  endfacet
  facet normal 0 0 -1
    outer loop
      vertex 0.130541 -0.14498 -0.980785
      vertex 0.178224 0.0793504 -0.980785
      vertex 0.178224 -0.0793504 -0.980785
    endloop
  endfacet
  facet normal 0 0 -1
    outer loop
      vertex 0.130541 -0.14498 -0.980785
      vertex 0.130541 0.14498 -0.980785
      vertex 0.178224 0.0793504 -0.980785
    endloop
  endfacet
  facet normal 0 0 -1
    outer loop
      vertex 0.0602862 -0.185542 -0.980785
      vertex 0.130541 0.14498 -0.980785
      vertex 0.130541 -0.14498 -0.980785
    endloop
  endfacet
  facet normal 0 0 -1
    outer loop
      vertex 0.0602862 -0.185542 -0.980785
      vertex 0.0602862 0.185542 -0.980785
      vertex 0.130541 0.14498 -0.980785
    endloop
  endfacet
  facet normal 0 0 -1
    outer loop
      vertex -0.0203925 -0.194022 -0.980785
      vertex 0.0602862 0.185542 -0.980785
      vertex 0.0602862 -0.185542 -0.980785
    endloop
  endfacet
  facet normal 0 0 -1
    outer loop
      vertex -0.0203925 -0.194022 -0.980785
      vertex -0.0203925 0.194022 -0.980785
      vertex 0.0602862 0.185542 -0.980785
    endloop
  endfacet
  facet normal 0 0 -1
    outer loop
      vertex -0.0975452 -0.168953 -0.980785
      vertex -0.0203925 0.194022 -0.980785
      vertex -0.0203925 -0.194022 -0.980785
    endloop
  endfacet
  facet normal 0 0 -1
    outer loop
      vertex -0.0975452 -0.168953 -0.980785
      vertex -0.0975452 0.168953 -0.980785
      vertex -0.0203925 0.194022 -0.980785
    endloop
  endfacet
  facet normal 0 0 -1
    outer loop
      vertex -0.157831 -0.114671 -0.980785
      vertex -0.0975452 0.168953 -0.980785
      vertex -0.0975452 -0.168953 -0.980785
    endloop
  endfacet
  facet normal 0 0 -1
    outer loop
      vertex -0.157831 -0.114671 -0.980785
      vertex -0.157831 0.114671 -0.980785
      vertex -0.0975452 0.168953 -0.980785
    endloop
  endfacet
  facet normal 0 0 -1
    outer loop
      vertex -0.190827 -0.0405616 -0.980785
      vertex -0.157831 0.114671 -0.980785
      vertex -0.157831 -0.114671 -0.980785
    endloop
  endfacet
  facet normal 0 0 -1
    outer loop
      vertex -0.157831 0.114671 -0.980785
      vertex -0.190827 -0.0405616 -0.980785
      vertex -0.190827 0.0405616 -0.980785
    endloop
  endfacet
endsolid OpenSCAD_Model
